<?xml version="1.0" encoding="UTF-8"?> <svg xmlns="http://www.w3.org/2000/svg" xmlns:xlink="http://www.w3.org/1999/xlink" width="127px" height="151px" viewBox="0 0 127 151"><!-- Generator: Sketch 55 (78076) - https://sketchapp.com --><title>Group 18</title><desc>Created with Sketch.</desc><defs><path d="M0,41.0169492 L0,0 L127,0 L127,41.0169492 C127,60.0660926 98.5700816,75.5084746 63.5,75.5084746 C28.4299184,75.5084746 0,60.0660926 0,41.0169492 Z" id="path-1"></path><path d="M0,41.0169492 L0,0 L127,0 L127,41.0169492 C127,60.0660926 98.5700816,75.5084746 63.5,75.5084746 C28.4299184,75.5084746 0,60.0660926 0,41.0169492 Z" id="path-3"></path><filter x="-133.9%" y="-134.1%" width="367.7%" height="368.2%" id="filter-5"><feGaussianBlur stdDeviation="5" in="SourceGraphic"></feGaussianBlur></filter><rect id="path-6" x="0" y="0" width="127" height="43"></rect></defs><g id="tivix.com" stroke="none" stroke-width="1" fill="none" fill-rule="evenodd"><g id="Landing" transform="translate(-338.000000, -2230.000000)"><g id="Group-19" transform="translate(165.000000, 2035.000000)"><g id="Group-18" transform="translate(173.000000, 195.000000)"><g id="Group-17" transform="translate(0.000000, 41.000000)"><g id="Group-16" transform="translate(0.000000, 34.491525)"><mask id="mask-2" fill="white"><use xlink:href="#path-1"></use></mask><use id="Combined-Shape" fill="#5C5380" fill-rule="nonzero" xlink:href="#path-1"></use><g id="Group-10" mask="url(#mask-2)" fill-rule="nonzero"><g transform="translate(56.963235, 38.220339)"><rect id="Rectangle" fill="#362F4F" x="0" y="0" width="13.0735294" height="33.559322" rx="6.53676471"></rect><ellipse id="Oval" fill="#00CAC5" cx="6.53676471" cy="16.779661" rx="2.80147059" ry="2.79661017"></ellipse><ellipse id="Oval" fill="#009B97" cx="6.53676471" cy="6.52542373" rx="2.80147059" ry="2.79661017"></ellipse><ellipse id="Oval" fill="#594E82" cx="6.53676471" cy="27.0338983" rx="2.80147059" ry="2.79661017"></ellipse></g></g></g><ellipse id="Oval" fill="#74699A" fill-rule="nonzero" cx="63.5" cy="34.4915254" rx="63.5" ry="34.4915254"></ellipse></g><g id="Group-17"><g id="Group-16" transform="translate(0.000000, 34.491525)"><mask id="mask-4" fill="white"><use xlink:href="#path-3"></use></mask><use id="Combined-Shape" fill="#5C5380" fill-rule="nonzero" xlink:href="#path-3"></use><g id="Group-10" mask="url(#mask-4)" fill-rule="nonzero"><g transform="translate(56.963235, 38.220339)"><rect id="Rectangle" fill="#362F4F" x="0" y="0" width="13.0735294" height="33.559322" rx="6.53676471"></rect><ellipse id="Oval" fill="#FF9B21" cx="6.53676471" cy="16.779661" rx="2.80147059" ry="2.79661017"></ellipse><ellipse id="Oval" fill="#FF5A21" cx="6.53676471" cy="6.52542373" rx="2.80147059" ry="2.79661017"></ellipse><ellipse id="Oval" fill="#FF5A21" opacity="0.613002232" filter="url(#filter-5)" cx="6.53676471" cy="6.52542373" rx="5.60294118" ry="5.59322034"></ellipse><ellipse id="Oval" fill="#594E82" cx="6.53676471" cy="27.0338983" rx="2.80147059" ry="2.79661017"></ellipse></g></g></g><ellipse id="Oval" fill="#8379A8" fill-rule="nonzero" cx="63.5" cy="34.4915254" rx="63.5" ry="34.4915254"></ellipse></g><g id="Rectangle" transform="translate(0.000000, 69.000000)"><mask id="mask-7" fill="white"><use xlink:href="#path-6"></use></mask><g fill-rule="nonzero"></g><path d="M63.5,40.1956522 C99.5782015,40.1956522 128.825363,24.7105443 128.825363,5.60869565" id="Combined-Shape" stroke="#362F4F" stroke-width="3" fill-rule="nonzero" mask="url(#mask-7)"></path><path d="M63.5,40.1956522 C27.4217985,40.1956522 -1.8253626,24.7105443 -1.8253626,5.60869565" id="Combined-Shape" stroke="#362F4F" stroke-width="3" fill-rule="nonzero" mask="url(#mask-7)"></path></g></g></g></g></g></svg> 