<?xml version="1.0" encoding="UTF-8"?> <svg xmlns="http://www.w3.org/2000/svg" xmlns:xlink="http://www.w3.org/1999/xlink" width="379px" height="339px" viewBox="0 0 379 339"><!-- Generator: Sketch 55.2 (78181) - https://sketchapp.com --><title>Group 13</title><desc>Created with Sketch.</desc><defs><path d="M7.57698892,11.4368784 C4.48972446,15.0361892 0.343348779,16.8412432 0.343348779,16.8412432 C0.343348779,16.8412432 2.18944733,19.2801622 3.41719869,20.2284189 C37.313229,46.4144054 84.6468126,74.9573784 90.7121087,65.4576622 C96.8661964,56.0138378 49.3888854,23.5647838 14.3168456,2.50433784 C12.9894433,1.70724324 11.7955477,1.08989189 10.4438714,0.407121622 C10.4438714,0.407121622 10.6648922,7.83756757 7.57698892,11.4368784" id="path-1"></path><path d="M0,18.0569599 C0,32.7870272 10.8481481,50.8654049 24.1074074,58.2313309 L24.1074074,58.2313309 C37.3648148,65.5972569 48.212963,59.571726 48.212963,44.8416587 L48.212963,44.8416587 C48.212963,30.1115915 37.3648148,12.0332138 24.1074074,4.66728776 L24.1074074,4.66728776 C20.2648148,2.53443542 16.6277778,1.52423088 13.3962963,1.52423088 L13.3962963,1.52423088 C5.47407407,1.52601569 0,7.59438218 0,18.0569599" id="path-3"></path><path d="M0,16.629109 C0,31.3591762 10.8481481,49.4375539 24.1074074,56.80348 L24.1074074,56.80348 C37.3648148,64.169406 48.212963,58.143875 48.212963,43.4138078 L48.212963,43.4138078 C48.212963,28.6837405 37.3648148,10.6053628 24.1074074,3.23943682 L24.1074074,3.23943682 C20.2648148,1.10658448 16.6277778,0.0963799384 13.3962963,0.0963799384 L13.3962963,0.0963799384 C5.47407407,0.098164752 0,6.16653124 0,16.629109" id="path-5"></path><path d="M0,18.0569599 C0,32.7870272 10.8481481,50.8654049 24.1074074,58.2313309 L24.1074074,58.2313309 C37.3648148,65.5972569 48.212963,59.571726 48.212963,44.8416587 L48.212963,44.8416587 C48.212963,30.1115915 37.3648148,12.0332138 24.1074074,4.66728776 L24.1074074,4.66728776 C20.2648148,2.53443542 16.6277778,1.52423088 13.3962963,1.52423088 L13.3962963,1.52423088 C5.47407407,1.52601569 0,7.59438218 0,18.0569599 L0,18.0569599 Z" id="path-7"></path><path d="M24.1074074,56.80348 C37.3648148,64.169406 48.212963,58.143875 48.212963,43.4138078 C48.212963,28.6837405 37.3648148,10.6053628 24.1074074,3.23943682 C20.2648148,1.10658448 16.6277778,0.0963799384 13.3962963,0.0963799384 C5.47407407,0.098164752 0,6.16653124 0,16.629109 C0,31.3591762 10.8481481,49.4375539 24.1074074,56.80348 Z" id="path-9"></path><path d="M7.57698892,11.4368784 C4.48972446,15.0361892 0.343348779,16.8412432 0.343348779,16.8412432 C0.343348779,16.8412432 2.18944733,19.2801622 3.41719869,20.2284189 C37.313229,46.4144054 84.6468126,74.9573784 90.7121087,65.4576622 C96.8661964,56.0138378 49.3888854,23.5647838 14.3168456,2.50433784 C12.9894433,1.70724324 11.7955477,1.08989189 10.4438714,0.407121622 C10.4438714,0.407121622 10.6648922,7.83756757 7.57698892,11.4368784" id="path-11"></path></defs><g id="Sub-services-Other" stroke="none" stroke-width="1" fill="none" fill-rule="evenodd"><g id="Design-Thinking-Workshops" transform="translate(-772.000000, -183.000000)"><g id="Group-13" transform="translate(770.655348, 182.899495)"><g id="Group-11" transform="translate(333.325555, 166.286509) scale(-1, 1) rotate(6.000000) translate(-333.325555, -166.286509) translate(281.825555, 130.286509)"><path d="M21.2997858,2.83393108 L3.18720957,0.522437013 C2.0915264,0.382607917 1.08994582,1.15748074 0.950116723,2.25316391 C0.89110538,2.71556936 0.995470162,3.18406371 1.24517811,3.57769688 L11.1986244,19.2680527 L21.2997858,16.026323 L21.2997858,2.83393108 Z" id="Fill-1" fill="#9E93D2"></path><g id="Group-10" transform="translate(10.000000, 2.021595)"><g id="Group-7" transform="translate(0.855787, 0.405405)"><g id="Fill-4"><mask id="mask-2" fill="white"><use xlink:href="#path-1"></use></mask><use id="Mask" fill="#DDE3E9" xlink:href="#path-1"></use></g></g></g></g><g id="Group-17" transform="translate(274.344652, 52.100505) scale(-1, 1) translate(-274.344652, -52.100505) translate(249.344652, 20.100505)"><g id="Group-3" transform="translate(0.000000, 1.772032)" fill="#DDE3E9"><path d="M0.000185185185,16.545332 C0.000185185185,1.81526478 10.8483333,-4.20848137 24.1075926,3.15565985 C37.365,10.5215859 48.2131481,28.5999636 48.2131481,43.3300308 C48.2131481,58.0600981 37.365,64.085629 24.1075926,56.719703 C10.8483333,49.353777 0.000185185185,31.2753993 0.000185185185,16.545332" id="Fill-1"></path></g><g id="Group-16" transform="translate(0.000000, 0.260404)"><g id="Group-6"><mask id="mask-4" fill="white"><use xlink:href="#path-3"></use></mask><g id="Clip-5"></g><path d="M24.6512963,40.5641743 C30.842037,44.0035102 35.9068519,41.1906439 35.9068519,34.311972 C35.9068519,27.4368697 30.842037,18.994701 24.6512963,15.5553651 C18.4605556,12.117814 13.3957407,14.9306803 13.3957407,21.8075674 C13.3957407,28.6844545 18.4605556,37.1248383 24.6512963,40.5641743" id="Fill-4" fill="#FFFFFF" mask="url(#mask-4)"></path></g><g id="Group-9" transform="translate(0.000000, 1.427851)"><mask id="mask-6" fill="white"><use xlink:href="#path-5"></use></mask><g id="Clip-8"></g></g><g id="Group-12"><mask id="mask-8" fill="white"><use xlink:href="#path-7"></use></mask><g id="Clip-11"></g><polygon id="Fill-10" fill="#FFFFFF" mask="url(#mask-8)" points="29.2890741 38.2355279 29.2890741 48.1858641 21.402037 43.7024122 21.402037 33.7520759"></polygon></g><g id="Group-15" transform="translate(0.000000, 1.427851)"><mask id="mask-10" fill="white"><use xlink:href="#path-9"></use></mask><g id="Clip-14"></g><path d="M6.52240741,46.6450345 C6.87425926,45.5848551 7.34648148,44.5121821 7.95759259,43.5251802 C8.70203704,42.3311398 9.65574074,41.2656061 10.8594444,40.5159843 C12.6427778,39.4058302 14.9427778,39.2933869 17.0112963,39.3576402 C17.2631481,39.3665643 19.3724074,39.666413 19.3724074,39.666413 C19.5038889,39.69497 19.6390741,39.7199574 19.7687037,39.7556537 C20.2409259,39.8805906 20.7057407,40.0376542 21.152037,40.2304141 L28.4094444,44.0356369 C36.7687037,48.4191393 42.0631481,56.7702824 42.2983333,65.9388703 L42.4909259,73.5332525 L5.08722222,53.8574665 C5.3687037,51.5425632 5.78537037,48.8635579 6.52240741,46.6450345" id="Fill-13" fill="#5B5380" mask="url(#mask-10)"></path></g></g></g><g id="Group-3" transform="translate(281.344652, 184.100505)"><g id="Group" transform="translate(0.000000, 0.607158)"></g></g><g id="Group-2" transform="translate(87.344652, 41.100505)"><g id="Group-5" transform="translate(140.567657, 70.345679)"><path d="M0,88.0615226 C-0.0236033909,89.5511189 0.751664878,90.9388762 2.03009272,91.6953939 L94.6339955,145.707201 C97.3583027,147.319651 100.801524,145.381478 100.852763,142.20669 L100.852763,59.6104761 C100.875589,58.1321953 100.111592,56.7525204 98.8484601,55.9919615 L6.24455729,1.08057697 C3.52105516,-0.558544709 0.0512667534,1.37801128 0,4.56573115 L0,88.0615226 Z" id="Fill-6" fill="#5B5380"></path><path d="M59.9009901,122.146011 L59.9009901,141.022223 C59.9009901,141.905879 60.6173345,142.622223 61.5009901,142.622223 C61.7425513,142.622223 61.9809771,142.567527 62.1983844,142.462237 L81.6866531,133.024132 C82.481951,132.638971 82.8144333,131.682021 82.4292731,130.886723 C82.2723394,130.562678 82.0106976,130.301037 81.6866531,130.144103 L62.1983844,120.705997 C61.4030864,120.320837 60.446136,120.653319 60.0609758,121.448617 C59.9556862,121.666024 59.9009901,121.90445 59.9009901,122.146011 Z" id="Path-2" fill="#5B5380" fill-rule="nonzero"></path><g id="Group-7" transform="translate(23.161716, 56.756173)" fill="#9E93D2"><path d="M8.92922918,16.4920201 C12.2354913,18.3546118 14.9414656,16.8299723 14.9421462,13.1040329 C14.9428267,9.37809338 12.237966,4.80569991 8.93170389,2.94310825 C7.97340041,2.40378276 7.06631381,2.14856641 6.26033236,2.14856641 C4.28440754,2.14937876 2.91880846,3.6846086 2.91832495,6.3310956 C2.91764453,10.0570351 5.6225052,14.6294286 8.92922918,16.4920201 Z" id="Clip-14" transform="translate(8.930236, 9.717684) rotate(29.000000) translate(-8.930236, -9.717684) "></path><path d="M22.7371754,24.060859 C26.0434375,25.9234507 28.7494117,24.3988112 28.7500924,20.6728717 C28.7507728,16.9469323 26.0459122,12.3745388 22.7396501,10.5119471 C21.7813466,9.97262164 20.87426,9.71740529 20.0682785,9.71740529 C18.0923537,9.71821764 16.7267546,11.2534475 16.7262711,13.8999345 C16.7255907,17.625874 19.4304514,22.1982674 22.7371754,24.060859 Z" id="Clip-14" transform="translate(22.738182, 17.286523) rotate(29.000000) translate(-22.738182, -17.286523) "></path><path d="M36.9905392,32.0850683 C40.2968013,33.9476599 43.0027755,32.4230205 43.0034562,28.697081 C43.0041366,24.9711415 40.299276,20.398748 36.9930139,18.5361564 C36.0347104,17.9968309 35.1276238,17.7416145 34.3216423,17.7416145 C32.3457175,17.7424269 30.9801184,19.2776567 30.9796349,21.9241437 C30.9789545,25.6500832 33.6838152,30.2224767 36.9905392,32.0850683 Z" id="Clip-14" transform="translate(36.991546, 25.310732) rotate(29.000000) translate(-36.991546, -25.310732) "></path></g></g><g id="Group-8"><g id="Group-4"><path d="M2.84217094e-14,87.5761708 C-0.0236033909,89.0657671 0.751664878,90.4535244 2.03009272,91.2100421 C13.4555755,97.5514955 26.3941165,104.760404 40.8457158,112.836768 C40.8457158,112.836768 50.0770176,107.961582 68.5396213,98.2112102 L68.5396213,38.705249 C68.5624478,37.2269681 67.7984503,35.8472932 66.5353185,35.0867343 L6.24572302,0.595225179 C3.52222089,-1.0438965 0.0512667534,0.892659488 2.84217094e-14,4.08037936 L2.84217094e-14,87.5761708 Z" id="Fill-6" fill="#FFB461"></path><path d="M68.6864686,97.9954478 L45.4234577,85.7476042 C43.859647,84.9242667 41.9244809,85.5245389 41.1011434,87.0883496 C40.8591379,87.548004 40.7326733,88.0596644 40.7326733,88.5791341 L40.7326733,112.712963" id="Path-5" fill="#FF5518" fill-rule="nonzero"></path></g><g id="Group-10" transform="translate(40.732673, 145.487654)"><path d="M3.55271368e-14,87.5761708 C-0.0236033909,89.0657671 0.751664878,90.4535244 2.03009272,91.2100421 C13.4555755,97.5514955 26.3941165,104.760404 40.8457158,112.836768 C40.8457158,112.836768 50.0770176,107.961582 68.5396213,98.2112102 L68.5396213,38.705249 C68.5624478,37.2269681 67.7984503,35.8472932 66.5353185,35.0867343 L6.24572302,0.595225179 C3.52222089,-1.0438965 0.0512667534,0.892659488 3.55271368e-14,4.08037936 L3.55271368e-14,87.5761708 Z" id="Fill-6" fill="#00CAC5"></path><path d="M68.6864686,97.8533176 L45.4234577,85.605474 C43.859647,84.7821364 41.9244809,85.3824086 41.1011434,86.9462194 C40.8591379,87.4058738 40.7326733,87.9175341 40.7326733,88.4370039 L40.7326733,112.570833" id="Path-5" fill="#007C79" fill-rule="nonzero"></path></g></g></g><g id="Group-11" transform="translate(52.500000, 305.993516) rotate(-1.000000) translate(-52.500000, -305.993516) translate(1.000000, 269.993516)"><path d="M21.2997858,2.83393108 L3.18720957,0.522437013 C2.0915264,0.382607917 1.08994582,1.15748074 0.950116723,2.25316391 C0.89110538,2.71556936 0.995470162,3.18406371 1.24517811,3.57769688 L11.1986244,19.2680527 L21.2997858,16.026323 L21.2997858,2.83393108 Z" id="Fill-1" fill="#5B5380"></path><g id="Group-10" transform="translate(10.000000, 2.021595)"><g id="Group-7" transform="translate(0.855787, 0.405405)"><g id="Fill-4"><mask id="mask-12" fill="white"><use xlink:href="#path-11"></use></mask><use id="Mask" fill="#DDE3E9" xlink:href="#path-11"></use></g></g></g></g><rect id="Rectangle" fill="#00CAC5" fill-rule="nonzero" transform="translate(350.244147, 315.000000) rotate(-45.000000) translate(-350.244147, -315.000000) " x="343.244147" y="308" width="14" height="14"></rect><g id="Group-9" transform="translate(69.344652, 207.100505)"><g id="Group-7"><g id="Group-6" transform="translate(0.000000, 0.404400)"></g></g></g><rect id="Rectangle" fill="#FF5518" fill-rule="nonzero" transform="translate(200.244147, 10.000000) rotate(-45.000000) translate(-200.244147, -10.000000) " x="193.244147" y="3" width="14" height="14"></rect></g></g></g></svg> 