<?xml version="1.0" encoding="UTF-8"?> <svg xmlns="http://www.w3.org/2000/svg" xmlns:xlink="http://www.w3.org/1999/xlink" width="226px" height="245px" viewBox="0 0 226 245"><!-- Generator: Sketch 55 (78076) - https://sketchapp.com --><title>Group 22</title><desc>Created with Sketch.</desc><defs><polygon id="path-1" points="0.485998258 0.646 130.399 0.646 130.399 187.720176 0.485998258 187.720176"></polygon><filter x="-56.2%" y="-96.3%" width="212.3%" height="292.5%" id="filter-3"><feGaussianBlur stdDeviation="6" in="SourceGraphic"></feGaussianBlur></filter></defs><g id="tivix.com" stroke="none" stroke-width="1" fill="none" fill-rule="evenodd"><g id="Services" transform="translate(-931.000000, -1676.000000)"><g id="Group-22" transform="translate(931.000000, 1670.000000)"><g id="Group-20"><g id="Group-3" transform="translate(99.000000, 0.354000)"><mask id="mask-2" fill="white"><use xlink:href="#path-1"></use></mask><g id="Clip-2"></g></g><path d="M101.347596,11.7986716 L99.6693054,116.249005 C99.639066,118.112439 100.609753,119.848475 102.210429,120.794852 L216.496491,188.361746 C219.907504,190.378865 224.218645,187.954278 224.282148,183.982729 L225.942295,80.6577349 C225.971526,78.8084569 225.014951,77.0825315 223.433426,76.1310987 L109.165508,7.43886486 C105.755504,5.3883806 101.411099,7.81094484 101.347596,11.7986716" id="Fill-6" fill="#342E4F"></path><path d="M2.6375,171.7476 L95.2045,117.7896 C96.8565,116.8276 98.8975,116.8266 100.5505,117.7876 L218.5445,186.3796 C222.0665,188.4266 222.0695,193.5126 218.5505,195.5636 L126.9805,248.9386 C125.3415,249.8946 123.3165,249.9036 121.6685,248.9616 L2.6765,180.9506 C-0.8745,178.9206 -0.8965,173.8076 2.6375,171.7476" id="Fill-10" fill="#5B5380"></path><path d="M51.8206,190.6006 L81.7546,173.1526 C82.2886,172.8406 82.9486,172.8406 83.4836,173.1516 L121.6396,195.3326 C122.7786,195.9946 122.7786,197.6386 121.6406,198.3026 L92.0296,215.5626 C91.4996,215.8716 90.8446,215.8736 90.3126,215.5696 L51.8336,193.5766 C50.6856,192.9196 50.6776,191.2666 51.8206,190.6006" id="Fill-12" fill="#A197C5"></path><path d="M64.9141,143.397 L64.9141,143.397 C64.2026615,143.811659 63.962074,144.724541 64.3767328,145.435979 C64.5075172,145.660369 64.6946471,145.846704 64.9195915,145.976532 L171.30322,207.376426 C172.707993,208.187199 174.438443,208.187608 175.8436,207.3775 L175.8436,207.3775 C176.566449,206.960759 176.814599,206.036939 176.397859,205.31409 C176.265058,205.083743 176.073818,204.892524 175.843457,204.759748 L69.3623396,143.386235 C67.9848416,142.592274 66.2877389,142.596381 64.9141,143.397 Z" id="Fill-14" fill="#342E4F"></path><path d="M76.0615,136.482 L76.0615,136.482 C75.3500618,136.896659 75.1094744,137.80954 75.524133,138.520979 C75.6549175,138.745368 75.8420475,138.931703 76.066992,139.061531 L182.516631,200.499474 C183.915908,201.307074 185.640661,201.302886 187.036,200.4885 L187.036,200.4885 C187.758824,200.066626 188.002792,199.138665 187.580918,198.415841 C187.447862,198.187868 187.257566,197.998603 187.028872,197.866789 L80.5097384,136.471237 C79.1322414,135.677274 77.4351387,135.681381 76.0615,136.482 Z" id="Fill-16" fill="#342E4F"></path><path d="M176.096689,194.184273 L176.096689,194.184273 C175.375016,194.527586 175.068294,195.390929 175.411608,196.112603 C175.537734,196.377731 175.741526,196.59822 175.995922,196.744792 L182.515652,200.501171 C183.915698,201.307815 185.640498,201.302981 187.036,200.4885 L187.036,200.4885 C187.758856,200.066607 188.002835,199.138604 187.580942,198.415748 C187.44789,198.187782 187.257604,197.99852 187.028923,197.866701 L180.974512,194.376742 C179.47905,193.51471 177.655425,193.442753 176.096689,194.184273 Z" id="Fill-16" fill="#FF5518"></path><path d="M87.3551,129.9178 L87.3551,129.9178 C86.6435185,130.326621 86.3980831,131.234887 86.8069045,131.946469 C86.9374139,132.173629 87.125661,132.362248 87.352564,132.493204 L193.854802,193.960715 C195.260242,194.771861 196.991416,194.772656 198.3976,193.9628 L198.3976,193.9628 C199.120547,193.546437 199.369083,192.622844 198.95272,191.899896 C198.819924,191.669317 198.628577,191.477906 198.398043,191.345031 L91.8283115,129.920908 C90.4442387,129.123163 88.74028,129.121979 87.3551,129.9178 Z" id="Fill-18" fill="#342E4F"></path></g><path d="M69.0949672,31.0430546 L67.6692021,120.031383 C67.6435127,121.618969 68.4681444,123.098016 69.8279731,123.904299 L166.917862,181.469122 C169.815633,183.187642 173.478094,181.121972 173.532041,177.73834 L174.942393,89.7087643 C174.967226,88.1332389 174.154583,86.6628059 172.811024,85.8522158 L75.7365489,29.3286392 C72.8396341,27.5816925 69.148915,29.6456394 69.0949672,33.0430546" id="Fill-6" fill="#FFFFFF"></path><path d="M55.9742751,73.8427878 C55.9567278,74.9232328 56.519997,75.9298113 57.4488356,76.4785343 L123.756097,113.539016 C125.735436,114.70857 128.2371,113.302761 128.273949,111 L128.273949,101.523956 C128.290912,100.451718 127.735831,99.4510024 126.818106,98.8993481 L60.5108445,60.4317331 C58.5320907,59.2428333 56.0111245,60.6474704 55.9742751,62.959611 L55.9742751,73.8427878 Z" id="Fill-6" fill="#00CAC5"></path><path d="M153.000398,127.842788 C152.982851,128.923233 153.54612,129.929811 154.474959,130.478534 L178.319188,143.97075 C180.298527,145.140304 182.800191,143.734494 182.83704,141.431733 L182.83704,130.478534 C182.854003,129.406297 182.298922,128.405581 181.381197,127.853926 L157.536968,114.431733 C155.558214,113.242833 153.037248,114.64747 153.000398,116.959611 L153.000398,127.842788 Z" id="Fill-6" fill="#FFB461"></path><g id="Group-11" transform="translate(135.000000, 189.000000)" fill="#00CAC5"><path d="M2.01931571,1.38592402 L2.01931571,1.38592402 C0.215945639,2.28715446 -0.515383027,4.47966637 0.385847412,6.28303643 C0.714648138,6.94096959 1.23453408,7.48422988 1.87738041,7.84162958 L18.8563478,17.2813314 C22.4100432,19.2570596 26.7526368,19.1645363 30.2189557,17.0392396 L30.2189557,17.0392396 C32.0263154,15.931097 32.5931428,13.5676154 31.4850003,11.7602557 C31.1388204,11.195643 30.6524485,10.7302009 30.0731643,10.4091747 L14.2615084,1.64671447 C10.4731925,-0.452684065 5.89359955,-0.550241274 2.01931571,1.38592402 Z" id="Fill-16"></path><path d="M2.01931571,1.38592402 L2.01931571,1.38592402 C0.215945639,2.28715446 -0.515383027,4.47966637 0.385847412,6.28303643 C0.714648138,6.94096959 1.23453408,7.48422988 1.87738041,7.84162958 L18.8563478,17.2813314 C22.4100432,19.2570596 26.7526368,19.1645363 30.2189557,17.0392396 L30.2189557,17.0392396 C32.0263154,15.931097 32.5931428,13.5676154 31.4850003,11.7602557 C31.1388204,11.195643 30.6524485,10.7302009 30.0731643,10.4091747 L14.2615084,1.64671447 C10.4731925,-0.452684065 5.89359955,-0.550241274 2.01931571,1.38592402 Z" id="Fill-16" filter="url(#filter-3)"></path></g><path d="M128.217521,231.725363 L128.217521,231.725363 C126.515441,232.553185 125.806716,234.604074 126.634537,236.306154 C126.962685,236.980858 127.503179,237.529234 128.173062,237.867115 L134.778918,241.199036 L134.778918,244.501483 L141.347191,248.629374 C144.999636,250.924786 149.695104,250.703131 153.115073,248.073856 L153.115073,248.073856 C155.16877,246.494971 155.553682,243.550182 153.974798,241.496484 C153.57965,240.982505 153.082241,240.556023 152.513969,240.24396 L147.424542,237.449135 L147.424542,234.263507 L140.798611,231.424321 C136.760011,229.693797 132.16873,229.803657 128.217521,231.725363 Z" id="Fill-16" fill="#342E4F"></path></g></g></g></svg> 