<?xml version="1.0" encoding="UTF-8"?> <svg xmlns="http://www.w3.org/2000/svg" xmlns:xlink="http://www.w3.org/1999/xlink" width="289px" height="198px" viewBox="0 0 289 198"><!-- Generator: Sketch 55 (78076) - https://sketchapp.com --><title>Group 24</title><desc>Created with Sketch.</desc><defs><filter x="-41.5%" y="-70.5%" width="182.9%" height="241.0%" id="filter-1"><feGaussianBlur stdDeviation="5" in="SourceGraphic"></feGaussianBlur></filter></defs><g id="tivix.com" stroke="none" stroke-width="1" fill="none" fill-rule="evenodd"><g id="Services" transform="translate(-244.000000, -2318.000000)"><g id="Group-24" transform="translate(244.000000, 2318.000000)"><path d="M120.305468,114.433309 L85.4979549,95.4026309 C84.5850259,94.9034956 83.4786604,94.9130309 82.5744701,95.4278272 L7.50026916,138.170954 C6.06042633,138.990721 5.55775589,140.822497 6.37752332,142.26234 C6.65276487,142.745775 7.05700431,143.143159 7.54507662,143.410092 L42.7152928,162.645118 C43.6321618,163.146565 44.7439063,163.134754 45.6499145,162.61394 L120.361412,119.666465 C121.797846,118.84074 122.292923,117.006897 121.467197,115.570463 C121.191993,115.091716 120.789989,114.698216 120.305468,114.433309 Z" id="Fill-6" fill="#E4E4E4"></path><g id="Group-12" transform="translate(0.000000, 25.000000)"><path d="M288.559644,118.766 C288.736351,118.1435 288.713793,117.551 288.559644,116.9885 L288.559644,113.57225 L268.93004,103.68725 C225.734384,78.806 110.017098,12.14225 103.305962,8.27975 C95.0420526,3.52475 86.770624,8.28725 86.770624,8.28725 C86.770624,8.28725 29.8143188,41.0885 10.0719227,52.4585 L0.548500649,56.576 L0.548500649,59.996 C0.12740974,63.0335 4.16537078,65.36975 4.16537078,65.36975 C4.16537078,65.36975 177.639786,165.2885 185.899936,170.03225 C188.512955,171.5285 191.122215,172.07975 193.472053,172.1285 C198.558981,172.2485 202.423994,170.03225 202.423994,170.03225 L276.772858,127.21475 L285.036767,122.456 C287.228695,121.196 288.232546,119.936 288.559644,118.76975 L288.559644,118.766 Z" id="Fill-1" fill="#5B5380"></path><g id="Group-5" transform="translate(0.000000, 0.386000)" fill="#5B5380"><path d="M276.77361,121.9095 L202.424746,164.727 C202.424746,164.727 194.160837,169.47075 185.900688,164.727 C177.640538,159.98325 4.16612273,60.0645 4.16612273,60.0645 C4.16612273,60.0645 -4.08650714,55.317 4.16612273,50.55825 C12.4225123,45.79575 86.771376,2.982 86.771376,2.982 C86.771376,2.982 95.0428045,-1.7805 103.302954,2.9745 C111.566863,7.73325 285.01496,107.64825 285.01496,107.64825 C285.01496,107.64825 293.297668,112.39575 285.033759,117.15075 L276.77361,121.9095 Z" id="Fill-3"></path></g><path d="M249.650324,95.7648416 L104.799363,12.2631875 C103.872634,11.7289599 102.731558,11.7285924 101.804485,12.262223 L25.1932218,56.3602983 C23.757262,57.1868486 23.263238,59.0209754 24.0897883,60.4569352 C24.3539998,60.915948 24.7350181,61.2968343 25.1941222,61.5608868 L167.965798,143.675636 C168.892271,144.208495 170.03227,144.208214 170.958481,143.674899 L249.649677,98.3642852 C250.367596,97.9509051 250.614474,97.0338056 250.201094,96.3158861 C250.069244,96.0869001 249.879244,95.8968063 249.650324,95.7648416 Z" id="Fill-6"></path><path d="M53.599576,31.759 C53.599576,32.7115 55.4493682,33.484 57.7315305,33.484 C60.0136929,33.484 61.8597253,32.7115 61.8597253,31.759 C61.8597253,30.80275 60.0136929,30.03025 57.7315305,30.03025 C55.4493682,30.03025 53.599576,30.80275 53.599576,31.759" id="Fill-10" fill="#342E4F"></path></g><path d="M204.360529,17.8167961 L169.463661,0.318867263 C168.567423,-0.130523026 167.505934,-0.102497227 166.634658,0.393559616 L91.5002692,43.1709536 C90.0604263,43.990721 89.5577559,45.8224971 90.3775233,47.2623399 C90.6527649,47.7457753 91.0570043,48.1431589 91.5450766,48.4100917 L126.690176,67.6313815 C127.62061,68.1402476 128.750574,68.1200712 129.662249,67.5783127 L204.548407,23.0775577 C205.972752,22.2311478 206.44126,20.3903379 205.59485,18.9659938 C205.301761,18.472782 204.873392,18.0739549 204.360529,17.8167961 Z" id="Fill-6" fill="#00CAC5"></path><path d="M120.305468,94.4333091 L85.4979549,75.4026309 C84.5850259,74.9034956 83.4786604,74.9130309 82.5744701,75.4278272 L7.50026916,118.170954 C6.06042633,118.990721 5.55775589,120.822497 6.37752332,122.26234 C6.65276487,122.745775 7.05700431,123.143159 7.54507662,123.410092 L42.7152928,142.645118 C43.6321618,143.146565 44.7439063,143.134754 45.6499145,142.61394 L120.361412,99.6664654 C121.797846,98.8407396 122.292923,97.0068966 121.467197,95.5704626 C121.191993,95.0917157 120.789989,94.6982163 120.305468,94.4333091 Z" id="Fill-6" fill="#FFFFFF"></path><ellipse id="Oval" fill="#FFFFFF" fill-rule="nonzero" cx="174.5" cy="18.5" rx="9.5" ry="6.5"></ellipse><path d="M220.140461,112.536832 L220.140461,112.536832 C211.534288,107.902528 201.134215,108.092226 192.702771,113.037299 L156.589931,134.21761 C152.322382,136.720543 150.891877,142.209103 153.394811,146.476653 C154.194586,147.840286 155.340981,148.967986 156.717578,149.745235 L156.717578,149.745235 C165.108198,154.482716 175.385954,154.396947 183.696341,149.520096 L220.423829,127.967012 C224.640747,125.492365 226.053137,120.067779 223.578489,115.850861 C222.757661,114.452131 221.568386,113.30575 220.140461,112.536832 Z" id="Fill-6" fill="#FFB461"></path><g id="Group-14" transform="translate(156.000000, 85.000000)" fill="#FF5518"><path d="M33.5976169,1.8976568 C31.5222403,0.701406802 28.9618571,0.701406802 26.8864805,1.8939068 L1.29476094,16.4764852 C-0.430959843,17.4702352 -0.430959843,19.9527352 1.2910012,20.9464852 L1.80232587,21.2389852 C4.19728042,22.6189852 7.14867652,22.6189852 9.54739081,21.2389852 L35,6.7389068 C36.5565325,5.8426568 36.5565325,3.6001568 35,2.7039068 L33.5976169,1.8976568 Z" id="Fill-8" filter="url(#filter-1)"></path><path d="M33.5976169,1.6938284 C31.5222403,0.497578401 28.9618571,0.497578401 26.8864805,1.6900784 L1.29476094,16.2726568 C-0.430959843,17.2664068 -0.430959843,19.7489068 1.2910012,20.7426568 L1.80232587,21.0351568 C4.19728042,22.4151568 7.14867652,22.4151568 9.54739081,21.0351568 L35,6.5350784 C36.5565325,5.6388284 36.5565325,3.3963284 35,2.5000784 L33.5976169,1.6938284 Z" id="Fill-8"></path></g><path d="M195.597617,124.897657 C193.52224,123.701407 190.961857,123.701407 188.886481,124.893907 L163.294761,139.476485 C161.56904,140.470235 161.56904,142.952735 163.291001,143.946485 L163.802326,144.238985 C166.19728,145.618985 169.148677,145.618985 171.547391,144.238985 L197,129.738907 C198.556532,128.842657 198.556532,126.600157 197,125.703907" id="Fill-8" fill="#FFFFFF"></path><ellipse id="Oval" fill="#A197C5" fill-rule="nonzero" cx="229" cy="153.5" rx="9" ry="5.5"></ellipse></g></g></g></svg> 